# xmcd
#
# Track frame offsets:
#	150
#	18525
#	30071
#	46775
#	63576
#	80530
#	96812
#	115721
#	136314
#	153801
#	164399
#	185493
#	202109
#	220060
#	236564
#
# Disc length: 3355
#
# Revision: 2
# Processed by: cddbd v1.5.1PL0 Copyright (c) Steve Scherf et al.
# Submitted via: audiograbber 1.82.00
# Normalized: r1:DSETVAR1
#
DISCID=bd0d190f
DTITLE=Various Artist - CDX Volume 330
DYEAR=2003
DGENRE=Country
TTITLE0=Amanda WILKINSON - Gone from love too long
TTITLE1=Bill ENGVALL and Neal McCOY - Here's your sign (don't mess with us)
TTITLE2=Darryl WORLEY - I will hold my ground
TTITLE3=T. Graham BROWN - Middle age crazy
TTITLE4=Patty LOVELESS - On your way home
TTITLE5=Buddy JEWELL - Sweet Southern Comfort
TTITLE6=Kenny CHESNEY - There goes my life
TTITLE7=Donovan CHAPMAN - There is no war
TTITLE8=This love - Leann RIMES
TTITLE9=Marty STUART - Too much month (at the end of the money)
TTITLE10=Tim McGRAW - Watch the wind blow by
TTITLE11=Jett WILLIAMS - A soft place to fall
TTITLE12=HILLJACK - Bigger than Dallas
TTITLE13=James Tex RANDALL - Denver's a mile high memory
TTITLE14=Trace ADKINS - Hot Mama
EXTD=
EXTT0=
EXTT1=
EXTT2=
EXTT3=
EXTT4=
EXTT5=
EXTT6=
EXTT7=
EXTT8=
EXTT9=
EXTT10=
EXTT11=
EXTT12=
EXTT13=
EXTT14=
PLAYORDER=
